# xmcd
#
# Track frame offsets: 
#        150
#        25595
#        48658
#        73671
#        94635
#        119235
#        143912
#        166788
#        196162
#
# Disc length: 2855 seconds
#
# Revision: 1
# Processed by: cddbd v1.5.2PL0 Copyright (c) Steve Scherf et al.
# Submitted via: ExactAudioCopyFreeDBPlugin 1.0
#
DISCID=7a0b2509
DTITLE=Bon Rock - B-Boy (Oh-La-Oh)
DYEAR=1983
DGENRE=Funk
TTITLE0=Searching Rap
TTITLE1=It's Alright
TTITLE2=Ooh Baby, Please Come Back
TTITLE3=Give Me (What I Want)
TTITLE4=B. Boy (Oh-La-Oh)
TTITLE5=I'm Hip
TTITLE6=Spell On Me
TTITLE7=Junior Wants To Play
TTITLE8=Tomorrow
EXTD=
EXTT0=
EXTT1=
EXTT2=
EXTT3=
EXTT4=
EXTT5=
EXTT6=
EXTT7=
EXTT8=
PLAYORDER=
